<?xml version="1.0" encoding="UTF-8" standalone="no"?>
<svg
   xmlns:dc="http://purl.org/dc/elements/1.1/"
   xmlns:cc="http://creativecommons.org/ns#"
   xmlns:rdf="http://www.w3.org/1999/02/22-rdf-syntax-ns#"
   xmlns:svg="http://www.w3.org/2000/svg"
   xmlns="http://www.w3.org/2000/svg"
   version="1.1"
   id="svg2"
   viewBox="0 0 160 160"
   height="160"
   width="160">
  <defs
     id="defs4" />
  <metadata
     id="metadata7">
    <rdf:RDF>
      <cc:Work
         rdf:about="">
        <dc:format>image/svg+xml</dc:format>
        <dc:type
           rdf:resource="http://purl.org/dc/dcmitype/StillImage" />
        <dc:title></dc:title>
      </cc:Work>
    </rdf:RDF>
  </metadata>
  <g
     transform="translate(0,-892.36216)"
     id="layer1">
    <g
       transform="translate(-209.17546,-1.47064)"
       id="g4147">
      <path
         id="path4151"
         d="m 209.17546,973.83282 0,-80 80,0 80,0 0,80 0,79.99998 -80,0 -80,0 0,-79.99998 z"
         style="fill:#ffffff" />
      <path
         id="path4149"
         d="m 209.17546,973.83282 0,-80 75,0 75,0 0,5 0,5 5,0 5,0 0,75 0,74.99998 -80,0 -80,0 0,-79.99998 z m 140,64.99998 0,-5 5,0 5,0 0,-5 0,-5 -5,0 -5,0 0,-20 0,-19.99998 -5,0 -5,0 0,-5 0,-5 -50,0 -50,0 0,5 0,5 -5,0 -5,0 0,29.99998 0,30 60,0 60,0 0,-5 z m -110,-10 0,-5 50,0 50,0 0,5 0,5 -50,0 -50,0 0,-5 z m 0,-20 0,-5 50,0 50,0 0,5 0,5 -50,0 -50,0 0,-5 z m 10,-19.99998 0,-5 40,0 40,0 0,5 0,5 -40,0 -40,0 0,-5 z m 80,-60 0,-25 -40,0 -40,0 0,25 0,25 40,0 40,0 0,-25 z m -40,0 0,-15 10,0 10,0 0,15 0,15 -10,0 -10,0 0,-15 z m 70,0 0,-5 -10,0 -10,0 0,5 0,5 10,0 10,0 0,-5 z"
         style="fill:#540054" />
    </g>
  </g>
</svg>
